<?xml version="1.0" standalone="no"?>
<!DOCTYPE svg PUBLIC "-//W3C//DTD SVG 20010904//EN"
 "http://www.w3.org/TR/2001/REC-SVG-20010904/DTD/svg10.dtd">
<svg version="1.0" xmlns="http://www.w3.org/2000/svg"
 width="340.000000pt" height="340.000000pt" viewBox="0 0 340.000000 340.000000"
 preserveAspectRatio="xMidYMid meet">
<metadata>
Created by potrace 1.11, written by Peter Selinger 2001-2013
</metadata>
<g transform="translate(0.000000,340.000000) scale(0.100000,-0.100000)"
fill="#000000" stroke="none">
<path d="M1619 3127 c-20 -12 -146 -84 -279 -161 -133 -76 -238 -142 -233
-147 8 -8 269 -161 363 -212 30 -16 62 -35 70 -41 18 -14 115 -66 123 -66 4 0
6 146 6 325 0 179 -3 325 -7 324 -4 0 -23 -10 -43 -22z"/>
<path d="M1715 2825 c0 -321 0 -325 20 -319 11 4 32 15 47 25 14 11 29 19 32
19 4 0 23 11 44 23 20 13 57 35 82 49 146 81 317 182 328 193 13 12 -86 75
-358 227 -25 14 -77 44 -116 67 -39 22 -73 41 -75 41 -2 0 -4 -146 -4 -325z"/>
<path d="M824 2661 c-110 -64 -238 -138 -283 -164 l-83 -48 154 -88 c84 -49
212 -123 283 -165 l130 -75 3 164 c1 91 1 238 0 328 l-3 163 -201 -115z"/>
<path d="M1080 2451 l0 -331 43 23 c23 12 61 35 84 50 24 15 45 27 47 27 2 0
93 51 201 114 191 111 196 115 173 129 -12 8 -126 74 -253 147 -126 73 -245
141 -262 152 l-33 20 0 -331z"/>
<path d="M2110 2659 c-113 -66 -240 -140 -284 -165 l-79 -46 44 -25 c24 -14
62 -36 84 -48 22 -13 130 -75 240 -139 l200 -115 3 165 c1 90 1 238 0 328 l-3
164 -205 -119z"/>
<path d="M2370 2451 c0 -313 1 -331 18 -322 9 5 51 29 92 53 41 25 100 59 130
76 30 17 117 66 193 110 l139 80 -94 55 c-51 30 -169 98 -263 152 -93 54 -180
105 -192 113 l-23 14 0 -331z"/>
<path d="M429 2368 c-4 -197 -3 -618 2 -618 4 0 80 43 170 95 90 52 214 123
276 157 62 35 111 67 109 73 -2 9 -62 45 -211 130 -22 12 -107 61 -189 109
-82 47 -151 86 -153 86 -1 0 -3 -15 -4 -32z"/>
<path d="M2760 2284 c-107 -62 -220 -128 -250 -146 -30 -19 -67 -40 -82 -47
-16 -8 -27 -15 -25 -17 2 -3 277 -162 340 -198 23 -13 82 -46 131 -75 49 -28
92 -51 95 -51 3 0 5 141 4 312 -3 375 -1 338 -10 337 -5 -1 -96 -52 -203 -115z"/>
<path d="M835 1918 c-227 -132 -234 -136 -307 -177 -32 -18 -58 -36 -58 -40 0
-4 100 -65 223 -136 122 -70 247 -143 277 -161 l55 -33 3 165 c1 90 1 238 0
328 l-3 164 -190 -110z"/>
<path d="M2370 1700 l0 -332 33 20 c45 28 432 250 491 283 l48 27 -118 69
c-66 39 -180 105 -254 148 -74 43 -150 86 -167 97 l-33 20 0 -332z"/>
<path d="M429 1608 c-4 -267 -2 -608 4 -608 4 0 24 11 45 23 20 13 57 35 82
49 25 14 85 48 134 77 49 28 90 51 90 51 1 0 50 29 109 63 l106 64 -275 159
c-152 87 -280 161 -285 162 -5 2 -9 -16 -10 -40z"/>
<path d="M2890 1609 c-36 -22 -74 -44 -85 -50 -11 -5 -29 -15 -40 -22 -11 -7
-98 -57 -193 -111 -94 -55 -171 -101 -169 -102 11 -11 562 -323 565 -320 2 2
3 136 3 298 0 363 1 348 -8 347 -5 0 -37 -18 -73 -40z"/>
<path d="M860 1183 c-91 -52 -218 -126 -283 -163 l-118 -69 98 -57 c54 -31
152 -88 218 -126 66 -38 127 -73 135 -78 8 -5 39 -23 68 -39 l52 -29 0 329 c0
181 -1 329 -2 329 -2 0 -77 -44 -168 -97z"/>
<path d="M2370 951 l0 -330 118 68 c64 37 178 103 252 146 216 124 205 116
184 128 -11 5 -136 77 -279 160 -143 82 -263 152 -267 154 -5 2 -8 -144 -8
-326z"/>
<path d="M429 894 c-3 -111 0 -637 4 -640 2 -3 46 20 97 51 51 30 94 55 95 55
6 0 351 203 360 212 7 7 6 12 -2 15 -7 3 -61 34 -120 69 -59 35 -107 64 -108
64 -6 0 -299 171 -311 181 -11 9 -14 8 -15 -7z"/>
<path d="M2858 842 c-53 -31 -175 -102 -272 -157 -96 -55 -174 -104 -173 -108
3 -9 545 -327 556 -327 5 0 6 564 2 638 -1 19 -9 16 -113 -46z"/>
</g>
</svg>
