<svg xmlns="http://www.w3.org/2000/svg" width="156.015" height="42.538" viewBox="0 0 156.015 42.538">
  <g id="Group_350" data-name="Group 350" transform="translate(-269.881 -256.485)">
    <g id="Group_348" data-name="Group 348" transform="translate(286.309 266.873)">
      <path id="Path_2862" data-name="Path 2862" d="M301.812,276.675h1.127l4.658,16.7h.05l4.732-16.7h1.377l4.808,16.7h.05l4.582-16.7h1.177l-5.133,17.878h-1.252l-4.908-16.926h-.05L308.2,294.553H306.97Z" transform="translate(-301.812 -276.675)" fill="#161615"/>
      <path id="Path_2863" data-name="Path 2863" d="M348.763,276.675v7.762h.05a4.138,4.138,0,0,1,.714-1.289,4.743,4.743,0,0,1,2.417-1.565,5.538,5.538,0,0,1,1.477-.2,5.858,5.858,0,0,1,1.915.275,3.767,3.767,0,0,1,1.29.726,3.524,3.524,0,0,1,.789,1.014,4.727,4.727,0,0,1,.413,1.139,6.769,6.769,0,0,1,.15,1.114q.025.539.025.939v7.962h-.951v-8.138q0-.475-.075-1.2a3.658,3.658,0,0,0-.438-1.39,3.188,3.188,0,0,0-1.1-1.139,3.751,3.751,0,0,0-2.04-.476,4.537,4.537,0,0,0-1.954.4,4.229,4.229,0,0,0-1.452,1.114,4.919,4.919,0,0,0-.914,1.7,7.159,7.159,0,0,0-.313,2.166v6.961h-.951V276.675Z" transform="translate(-324.145 -276.675)" fill="#161615"/>
      <path id="Path_2864" data-name="Path 2864" d="M372.652,279.254v-2.579h.951v2.579Zm0,15.3v-12.87h.951v12.87Z" transform="translate(-336.205 -276.675)" fill="#161615"/>
      <path id="Path_2865" data-name="Path 2865" d="M383.166,283.454h-2.8v8.989a3.464,3.464,0,0,0,.175,1.227,1.394,1.394,0,0,0,.538.688,1.908,1.908,0,0,0,.876.288,8.827,8.827,0,0,0,1.189.025v.826a8.861,8.861,0,0,1-1.414-.013,2.838,2.838,0,0,1-1.214-.375,2.2,2.2,0,0,1-.839-.939,3.543,3.543,0,0,1-.262-1.728v-8.989h-2.379v-.826h2.379v-4.006h.951v4.006h2.8Z" transform="translate(-338.331 -277.62)" fill="#161615"/>
      <path id="Path_2866" data-name="Path 2866" d="M390.173,292.685v.15a7.616,7.616,0,0,0,.3,2.154,5.5,5.5,0,0,0,.892,1.8,4.226,4.226,0,0,0,1.481,1.227,4.533,4.533,0,0,0,2.072.451,4.417,4.417,0,0,0,3.063-1.014,5.309,5.309,0,0,0,1.556-2.817h.952a5.759,5.759,0,0,1-1.841,3.455,5.585,5.585,0,0,1-3.743,1.2,5.68,5.68,0,0,1-2.491-.513,5.066,5.066,0,0,1-1.778-1.4,5.952,5.952,0,0,1-1.064-2.1,9.378,9.378,0,0,1-.35-2.616,9.174,9.174,0,0,1,.363-2.591,6.5,6.5,0,0,1,1.09-2.179,5.39,5.39,0,0,1,1.815-1.5,5.513,5.513,0,0,1,2.566-.563,5.452,5.452,0,0,1,2.391.5,5.026,5.026,0,0,1,1.74,1.365,6.069,6.069,0,0,1,1.064,2,7.991,7.991,0,0,1,.363,2.441c0,.084,0,.18-.012.288s-.013.2-.013.263Zm9.465-.826a7.671,7.671,0,0,0-.351-1.991,4.921,4.921,0,0,0-.891-1.653,4.442,4.442,0,0,0-1.431-1.139,4.2,4.2,0,0,0-1.92-.426,4.5,4.5,0,0,0-2.034.438,4.59,4.59,0,0,0-1.481,1.152,5.128,5.128,0,0,0-.929,1.665,7.809,7.809,0,0,0-.4,1.953Z" transform="translate(-344.25 -281.117)" fill="#161615"/>
      <path id="Path_2867" data-name="Path 2867" d="M432.626,276.675V292.55h9.465v2H430.248V276.675Z" transform="translate(-364.168 -276.675)" fill="#161615"/>
      <path id="Path_2868" data-name="Path 2868" d="M467.534,298.874a3.017,3.017,0,0,1-1.528.325,1.831,1.831,0,0,1-1.315-.463,2.013,2.013,0,0,1-.488-1.515,5.1,5.1,0,0,1-2.041,1.515,7.053,7.053,0,0,1-4.182.263,3.861,3.861,0,0,1-1.364-.626,3,3,0,0,1-.914-1.114,3.745,3.745,0,0,1-.337-1.665,3.808,3.808,0,0,1,.375-1.8,3.285,3.285,0,0,1,.989-1.139,4.562,4.562,0,0,1,1.4-.664q.789-.225,1.615-.375.876-.176,1.665-.263a9.249,9.249,0,0,0,1.39-.25,2.317,2.317,0,0,0,.951-.476,1.163,1.163,0,0,0,.35-.914,2.132,2.132,0,0,0-.263-1.127,1.807,1.807,0,0,0-.676-.651,2.734,2.734,0,0,0-.927-.3,6.947,6.947,0,0,0-1.014-.076,4.509,4.509,0,0,0-2.254.513,2.181,2.181,0,0,0-.977,1.94h-2.128a4.588,4.588,0,0,1,.5-2.028,3.8,3.8,0,0,1,1.2-1.34,5.05,5.05,0,0,1,1.715-.739,9.085,9.085,0,0,1,2.066-.225,12.207,12.207,0,0,1,1.74.125,4.57,4.57,0,0,1,1.565.512,3.007,3.007,0,0,1,1.127,1.087,3.475,3.475,0,0,1,.426,1.824v6.646a4.949,4.949,0,0,0,.087,1.1q.087.35.589.349a2.581,2.581,0,0,0,.651-.1Zm-3.456-6.635a2.653,2.653,0,0,1-1.052.436q-.651.137-1.364.224t-1.44.2a5.3,5.3,0,0,0-1.3.361,2.362,2.362,0,0,0-.939.709,1.981,1.981,0,0,0-.363,1.258,1.714,1.714,0,0,0,.213.884,1.762,1.762,0,0,0,.551.585,2.309,2.309,0,0,0,.789.324,4.4,4.4,0,0,0,.951.1,5.069,5.069,0,0,0,1.8-.286,3.8,3.8,0,0,0,1.227-.723,2.86,2.86,0,0,0,.7-.947,2.376,2.376,0,0,0,.225-.959Z" transform="translate(-376.363 -281.046)" fill="#161615"/>
      <path id="Path_2869" data-name="Path 2869" d="M484.507,276.675v6.685h.05a3.189,3.189,0,0,1,1.653-1.565,6.174,6.174,0,0,1,2.479-.488,5.84,5.84,0,0,1,2.617.551,5.318,5.318,0,0,1,1.852,1.49,6.579,6.579,0,0,1,1.114,2.166,8.85,8.85,0,0,1,.376,2.6,9.156,9.156,0,0,1-.363,2.6,6.142,6.142,0,0,1-1.1,2.141,5.208,5.208,0,0,1-1.853,1.44,6.014,6.014,0,0,1-2.591.525,6.434,6.434,0,0,1-1.064-.1,5.912,5.912,0,0,1-1.164-.326,4.542,4.542,0,0,1-1.09-.613,3.429,3.429,0,0,1-.863-.964h-.05v1.728h-2.129V276.675Zm7.649,9.527a4.778,4.778,0,0,0-.726-1.54,3.557,3.557,0,0,0-1.252-1.076,3.808,3.808,0,0,0-1.79-.4,3.516,3.516,0,0,0-3.055,1.54,4.663,4.663,0,0,0-.688,1.565,7.584,7.584,0,0,0,.013,3.618,4.541,4.541,0,0,0,.714,1.565,3.638,3.638,0,0,0,1.264,1.089,3.951,3.951,0,0,0,1.878.413,3.638,3.638,0,0,0,1.84-.425,3.423,3.423,0,0,0,1.19-1.127,4.906,4.906,0,0,0,.651-1.6,8.532,8.532,0,0,0,.2-1.853A6.622,6.622,0,0,0,492.156,286.2Z" transform="translate(-389.478 -276.675)" fill="#161615"/>
      <path id="Path_2870" data-name="Path 2870" d="M518.917,298.1a5.875,5.875,0,0,1-3.656,1.1,6.648,6.648,0,0,1-2.692-.5,5.3,5.3,0,0,1-1.915-1.4,5.95,5.95,0,0,1-1.164-2.153,10.381,10.381,0,0,1-.438-2.729,7.775,7.775,0,0,1,.451-2.7,6.454,6.454,0,0,1,1.264-2.128,5.734,5.734,0,0,1,1.928-1.4,5.884,5.884,0,0,1,2.442-.5,5.315,5.315,0,0,1,2.867.714,5.681,5.681,0,0,1,1.828,1.816,7.181,7.181,0,0,1,.951,2.4,10.3,10.3,0,0,1,.214,2.478h-9.69a5.126,5.126,0,0,0,.2,1.615,3.652,3.652,0,0,0,.726,1.353,3.584,3.584,0,0,0,1.277.939,4.409,4.409,0,0,0,1.828.35,3.681,3.681,0,0,0,2.216-.626,3.026,3.026,0,0,0,1.139-1.9h2.1A5.175,5.175,0,0,1,518.917,298.1Zm-.513-8.313a3.625,3.625,0,0,0-3.393-2.228,3.707,3.707,0,0,0-1.49.288,3.433,3.433,0,0,0-1.139.789,3.759,3.759,0,0,0-.751,1.164,4.435,4.435,0,0,0-.326,1.414h7.436A4.374,4.374,0,0,0,518.4,289.784Z" transform="translate(-402.428 -281.046)" fill="#161615"/>
      <path id="Path_2871" data-name="Path 2871" d="M538.4,276.675v17.878h-2.128V276.675Z" transform="translate(-415.646 -276.675)" fill="#161615"/>
    </g>
    <path id="Path_2872" data-name="Path 2872" d="M425.9,256.485H269.881v39.99h90.765v-1.159H271.04V257.644h153.7v37.672h-11.8v1.159H425.9Z" fill="#161615"/>
    <g id="Group_349" data-name="Group 349" transform="translate(363.773 292.54)">
      <path id="Path_2873" data-name="Path 2873" d="M453.586,326.8l.693,4.633h.017l.737-4.633h1.211l.737,4.633H457l.694-4.633H458.9l-1.141,6.264h-1.412l-.7-4.545h-.017l-.7,4.545h-1.413l-1.14-6.264Z" transform="translate(-452.375 -326.679)" fill="#161615"/>
      <path id="Path_2874" data-name="Path 2874" d="M465.861,328.506a2.927,2.927,0,0,1,.29-1.031,1.618,1.618,0,0,1,.645-.671,2.774,2.774,0,0,1,2.263,0,1.618,1.618,0,0,1,.645.671,2.9,2.9,0,0,1,.29,1.031,13.142,13.142,0,0,1,0,2.628,2.9,2.9,0,0,1-.29,1.026,1.536,1.536,0,0,1-.645.658,2.917,2.917,0,0,1-2.263,0,1.536,1.536,0,0,1-.645-.658,2.917,2.917,0,0,1-.29-1.026,13.142,13.142,0,0,1,0-2.628Zm1.229,2.386a2.952,2.952,0,0,0,.123.72.8.8,0,0,0,.263.4.864.864,0,0,0,.9,0,.8.8,0,0,0,.263-.4,2.952,2.952,0,0,0,.123-.72q.031-.442.031-1.075t-.031-1.07a3,3,0,0,0-.123-.72.806.806,0,0,0-.263-.408.867.867,0,0,0-.9,0,.806.806,0,0,0-.263.408,3,3,0,0,0-.123.72q-.031.439-.031,1.07T467.089,330.892Z" transform="translate(-458.89 -326.563)" fill="#161615"/>
      <path id="Path_2875" data-name="Path 2875" d="M477.867,326.8a1.76,1.76,0,0,1,1.229.4,1.565,1.565,0,0,1,.438,1.215,1.889,1.889,0,0,1-.254,1.031,1.178,1.178,0,0,1-.79.513v.017a1.146,1.146,0,0,1,.693.307,1.3,1.3,0,0,1,.272.763c.012.117.02.244.026.382s.012.291.018.46q.018.5.053.764a.491.491,0,0,0,.228.36v.052h-1.369a.669.669,0,0,1-.123-.3,3.355,3.355,0,0,1-.035-.355l-.035-1.2a.988.988,0,0,0-.184-.579.675.675,0,0,0-.561-.211H476.8v2.65h-1.264V326.8Zm-.544,2.738a1.032,1.032,0,0,0,.7-.215.92.92,0,0,0,.246-.724.772.772,0,0,0-.878-.868h-.6v1.807Z" transform="translate(-463.618 -326.679)" fill="#161615"/>
      <path id="Path_2876" data-name="Path 2876" d="M485.015,326.8h1.263v5.229h2.238v1.035h-3.5Z" transform="translate(-468.222 -326.679)" fill="#161615"/>
      <path id="Path_2877" data-name="Path 2877" d="M495.1,326.8a2.261,2.261,0,0,1,1.061.215,1.533,1.533,0,0,1,.628.614,2.747,2.747,0,0,1,.3.961,9.1,9.1,0,0,1,.079,1.255,8.886,8.886,0,0,1-.1,1.434,2.726,2.726,0,0,1-.347,1,1.519,1.519,0,0,1-.658.588,2.457,2.457,0,0,1-1.044.193H493.03V326.8Zm-.246,5.335a1.086,1.086,0,0,0,.536-.114.783.783,0,0,0,.32-.377,2.227,2.227,0,0,0,.158-.694q.039-.429.04-1.07,0-.535-.036-.939a2.309,2.309,0,0,0-.145-.671.838.838,0,0,0-.325-.4,1.066,1.066,0,0,0-.575-.136h-.535v4.4Z" transform="translate(-472.113 -326.679)" fill="#161615"/>
      <path id="Path_2878" data-name="Path 2878" d="M510.293,327.837h-2.238v1.474h2.106v1.036h-2.106v1.684h2.325v1.035h-3.588V326.8h3.5Z" transform="translate(-478.795 -326.679)" fill="#161615"/>
      <path id="Path_2879" data-name="Path 2879" d="M515.762,326.8l.807,2.027.8-2.027h1.377l-1.456,3.1,1.562,3.167h-1.421l-.9-2.123-.9,2.123h-1.386l1.562-3.167-1.439-3.1Z" transform="translate(-482.413 -326.679)" fill="#161615"/>
      <path id="Path_2880" data-name="Path 2880" d="M526.363,326.8a1.826,1.826,0,0,1,.812.162,1.484,1.484,0,0,1,.53.426,1.66,1.66,0,0,1,.29.6,2.723,2.723,0,0,1,.088.689,2.243,2.243,0,0,1-.145.842,1.524,1.524,0,0,1-.4.588,1.686,1.686,0,0,1-.627.342,2.747,2.747,0,0,1-.816.114h-.676v2.5h-1.264V326.8Zm-.386,2.834a.832.832,0,0,0,.61-.228.956.956,0,0,0,.233-.711,1.113,1.113,0,0,0-.2-.72.828.828,0,0,0-.676-.245h-.526v1.9Z" transform="translate(-487.223 -326.679)" fill="#161615"/>
      <path id="Path_2881" data-name="Path 2881" d="M532.812,328.506a2.926,2.926,0,0,1,.29-1.031,1.618,1.618,0,0,1,.645-.671,2.775,2.775,0,0,1,2.264,0,1.616,1.616,0,0,1,.645.671,2.906,2.906,0,0,1,.29,1.031,13.142,13.142,0,0,1,0,2.628,2.9,2.9,0,0,1-.29,1.026,1.535,1.535,0,0,1-.645.658,2.918,2.918,0,0,1-2.264,0,1.536,1.536,0,0,1-.645-.658,2.916,2.916,0,0,1-.29-1.026,13.227,13.227,0,0,1,0-2.628Zm1.229,2.386a3,3,0,0,0,.123.72.8.8,0,0,0,.263.4.864.864,0,0,0,.9,0,.8.8,0,0,0,.263-.4,2.986,2.986,0,0,0,.122-.72q.031-.442.031-1.075t-.031-1.07a3.037,3.037,0,0,0-.122-.72.806.806,0,0,0-.263-.408.867.867,0,0,0-.9,0,.806.806,0,0,0-.263.408,3.054,3.054,0,0,0-.123.72q-.03.439-.03,1.07T534.041,330.892Z" transform="translate(-491.396 -326.563)" fill="#161615"/>
    </g>
  </g>
</svg>
